<?xml version="1.0" ?><svg contentScriptType="text/ecmascript" contentStyleType="text/css" enable-background="new 0 0 2048 2048" height="2048px" id="Layer_1" preserveAspectRatio="xMidYMid meet" version="1.1" viewBox="13.0 0 1651.0 2048" width="1651.0px" xml:space="preserve" xmlns="http://www.w3.org/2000/svg" xmlns:xlink="http://www.w3.org/1999/xlink" zoomAndPan="magnify"><path d="M585,1111l-466,466c-6.667,6.667-14.333,10-23,10s-16.333-3.333-23-10l-50-50c-6.667-6.667-10-14.333-10-23  s3.333-16.333,10-23l393-393L23,695c-6.667-6.667-10-14.333-10-23s3.333-16.333,10-23l50-50c6.667-6.667,14.333-10,23-10  s16.333,3.333,23,10l466,466c6.667,6.667,10,14.333,10,23S591.667,1104.333,585,1111z M1664,1568v64c0,9.333-3,17-9,23  s-13.667,9-23,9H672c-9.333,0-17-3-23-9s-9-13.667-9-23v-64c0-9.333,3-17,9-23s13.667-9,23-9h960c9.333,0,17,3,23,9  S1664,1558.667,1664,1568z"/></svg>