<?xml version="1.0" ?><svg contentScriptType="text/ecmascript" contentStyleType="text/css" enable-background="new 0 0 2048 2048" height="2048px" id="Layer_1" preserveAspectRatio="xMidYMid meet" version="1.1" viewBox="40.0 0 1731.0 2048" width="1731.0px" xml:space="preserve" xmlns="http://www.w3.org/2000/svg" xmlns:xlink="http://www.w3.org/1999/xlink" zoomAndPan="magnify"><path d="M1771,1664c0,35.333-12.333,65.333-37,90l-107,108c-26,24.667-56.333,37-91,37c-35.333,0-65.333-12.333-90-37l-363-364  c-25.333-24-38-54-38-90c0-35.333,14.333-67.333,43-96l-256-256l-126,126c-9.333,9.333-20.667,14-34,14s-24.667-4.667-34-14  c1.333,1.333,5.5,5.333,12.5,12s11.167,11,12.5,13s4.667,5.833,10,11.5s8.667,10.167,10,13.5s3.333,7.833,6,13.5  s4.5,11.167,5.5,16.5s1.5,11.333,1.5,18c0,25.333-9.333,48-28,68c-2,2-7.5,8-16.5,18s-15.333,16.833-19,20.5s-9.833,9.167-18.5,16.5  s-16,12.5-22,15.5s-13.333,6-22,9s-17.333,4.5-26,4.5c-26.667,0-49.333-9.333-68-28L68,996c-18.667-18.667-28-41.333-28-68  c0-8.667,1.5-17.333,4.5-26s6-16,9-22s8.167-13.333,15.5-22s12.833-14.833,16.5-18.5s10.5-10,20.5-19s16-14.5,18-16.5  c20-18.667,42.667-28,68-28c6.667,0,12.667,0.5,18,1.5s10.833,2.833,16.5,5.5s10.167,4.667,13.5,6s7.833,4.667,13.5,10  c5.667,5.333,9.5,8.667,11.5,10s6.333,5.5,13,12.5s10.667,11.167,12,12.5c-9.333-9.333-14-20.667-14-34s4.667-24.667,14-34l348-348  c9.333-9.333,20.667-14,34-14s24.667,4.667,34,14c-1.333-1.333-5.5-5.333-12.5-12s-11.167-11-12.5-13s-4.667-5.833-10-11.5  s-8.667-10.167-10-13.5s-3.333-7.833-6-13.5s-4.5-11.167-5.5-16.5s-1.5-11.333-1.5-18c0-25.333,9.333-48,28-68c2-2,7.5-8,16.5-18  s15.333-16.833,19-20.5s9.833-9.167,18.5-16.5s16-12.5,22-15.5s13.333-6,22-9s17.333-4.5,26-4.5c26.667,0,49.333,9.333,68,28  l408,408c18.667,18.667,28,41.333,28,68c0,8.667-1.5,17.333-4.5,26s-6,16-9,22s-8.167,13.333-15.5,22s-12.833,14.833-16.5,18.5  s-10.5,10-20.5,19s-16,14.5-18,16.5c-20,18.667-42.667,28-68,28c-6.667,0-12.667-0.5-18-1.5s-10.833-2.833-16.5-5.5  s-10.167-4.667-13.5-6s-7.833-4.667-13.5-10s-9.5-8.667-11.5-10s-6.333-5.5-13-12.5s-10.667-11.167-12-12.5  c9.333,9.333,14,20.667,14,34s-4.667,24.667-14,34L928,960l256,256c28.667-28.667,60.667-43,96-43c34.667,0,65,12.333,91,37l363,363  C1758.667,1599,1771,1629.333,1771,1664z"/></svg>